<?xml version="1.0" encoding="UTF-8"?>
<svg width="91px" height="77px" viewBox="0 0 91 77" version="1.1" xmlns="http://www.w3.org/2000/svg" xmlns:xlink="http://www.w3.org/1999/xlink">
    <!-- Generator: Sketch 51.3 (57544) - http://www.bohemiancoding.com/sketch -->
    <title>Group 32</title>
    <desc>Created with Sketch.</desc>
    <defs>
        <radialGradient cx="50%" cy="50%" fx="50%" fy="50%" r="50%" id="radialGradient-1">
            <stop stop-color="#58A305" offset="0%"></stop>
            <stop stop-color="#95D230" offset="42.8684544%"></stop>
            <stop stop-color="#A8E13D" offset="72.7908573%"></stop>
            <stop stop-color="#9ED52B" offset="100%"></stop>
        </radialGradient>
        <linearGradient x1="0%" y1="27.7643412%" x2="90.6941891%" y2="50%" id="linearGradient-2">
            <stop stop-color="#337202" offset="0%"></stop>
            <stop stop-color="#34A10C" offset="100%"></stop>
        </linearGradient>
        <linearGradient x1="87.693217%" y1="76.3404876%" x2="12.3168169%" y2="50%" id="linearGradient-3">
            <stop stop-color="#337202" offset="0%"></stop>
            <stop stop-color="#34A10C" offset="100%"></stop>
        </linearGradient>
        <filter x="-39.4%" y="-109.9%" width="178.8%" height="319.8%" filterUnits="objectBoundingBox" id="filter-4">
            <feGaussianBlur stdDeviation="4" in="SourceGraphic"></feGaussianBlur>
        </filter>
        <filter x="-58.3%" y="-137.4%" width="216.6%" height="374.8%" filterUnits="objectBoundingBox" id="filter-5">
            <feGaussianBlur stdDeviation="3" in="SourceGraphic"></feGaussianBlur>
        </filter>
        <linearGradient x1="0%" y1="85.0526487%" x2="96.5651949%" y2="31.6568768%" id="linearGradient-6">
            <stop stop-color="#BF9054" offset="0%"></stop>
            <stop stop-color="#8B572A" offset="100%"></stop>
        </linearGradient>
        <filter x="-31.3%" y="-26.4%" width="162.6%" height="152.8%" filterUnits="objectBoundingBox" id="filter-7">
            <feGaussianBlur stdDeviation="5" in="SourceGraphic"></feGaussianBlur>
        </filter>
    </defs>
    <g id="Page-1" stroke="none" stroke-width="1" fill="none" fill-rule="evenodd">
        <g id="Desktop-HD" transform="translate(-123.000000, -94.000000)" fill-rule="nonzero">
            <g id="Group-32" transform="translate(175.624884, 126.040394) scale(-1, 1) rotate(-160.000000) translate(-175.624884, -126.040394) translate(133.000000, 96.000000)">
                <g id="Group-20-Copy" transform="translate(42.624884, 30.040394) scale(-1, 1) translate(-42.624884, -30.040394) ">
                    <circle id="Oval-10" fill="url(#radialGradient-1)" cx="55.2093732" cy="30.0403943" r="30.0403943"></circle>
                    <path d="M47.6754885,32.0368499 L55.0936137,29.6756724 L55.0936137,31.149228 L47.6754885,33.3573809 L46.4494209,34.2742597 C43.7927073,36.2610055 40.8746091,37.8717419 37.7776511,39.060917 L37.7776511,39.060917 C34.6921747,40.2456833 31.4152037,40.8532077 28.1100811,40.8532077 L27.31727,40.8532077 C23.4826749,40.8532077 19.6753023,40.2092778 16.0539762,38.9482794 L8.80385519,36.4236819 C7.84859713,36.0910472 6.87483506,35.8141456 5.88748278,35.5943746 L5.88748278,35.5943746 C4.90021456,35.3746223 3.90047775,35.2152086 2.89382566,35.117019 L1.18118342,34.9499666 C0.807458624,34.9135132 0.53404613,34.5809981 0.57049952,34.2072733 C0.596690412,33.9387609 0.779165613,33.7111358 1.03554881,33.6271566 L1.92390775,33.3361715 C4.55448721,32.4745161 7.04613209,31.2357475 9.32097951,29.6585768 L9.91329839,29.2479171 C12.5732373,27.4037592 15.5440599,26.0546039 18.6830324,25.2652716 L19.3170178,25.1058484 C22.3065956,24.3540832 25.4013955,24.1109402 28.4716939,24.386611 L28.4716939,24.386611 C31.5370873,24.6618414 34.5244201,25.5055213 37.2809169,26.8745041 L47.6754885,32.0368499 Z" id="Path-96" fill="url(#linearGradient-2)"></path>
                    <path d="M0.971348648,34.3957486 L8.00797052,33.2614641 C8.37680832,33.2020085 8.74311841,33.1278126 9.10602108,33.0390548 L14.7974643,31.6470555 C15.7551761,31.4128206 16.7349523,31.2804095 17.7204839,31.2520263 L24.5721676,31.0546983 C25.1456497,31.038182 25.7196048,31.0569333 26.290786,31.110846 L38.5334182,32.2664052 C39.667142,32.3734153 40.8072477,32.3960793 41.9443286,32.3342104 L47.6790564,32.0221818 L47.6790564,33.3711571 L46.0222783,34.7348439 C45.0312488,35.5505559 43.9510246,36.2514058 42.8022569,36.8239949 L41.2655872,37.5899289 C40.9554915,37.7444922 40.639765,37.8874906 40.3190596,38.0186287 L37.4661533,39.1851967 C36.973715,39.3865572 36.4701992,39.5596842 35.9580558,39.7037352 L34.3636084,40.152207 C33.3801807,40.4288166 32.3694311,40.5969543 31.3494153,40.6536165 L27.8262897,40.8493271 C27.0270951,40.8937226 26.2255653,40.8694976 25.4305106,40.7769183 L21.5995101,40.330822 C20.810415,40.2389368 20.0305726,40.0800529 19.2684274,39.8558909 L15.2971285,38.6878532 C15.1080357,38.6322373 14.9201385,38.5726343 14.7335626,38.5090841 L9.73948151,36.8080344 C9.70365643,36.795832 9.66778203,36.7837748 9.63185917,36.7718632 L7.42055273,36.0386226 C6.71203309,35.8036866 5.98585875,35.6257923 5.2489748,35.5066409 L1.63455733,34.9222034 C1.38160556,34.8813021 1.13894544,34.7918883 0.919931573,34.6588829 L0.919931573,34.6588829 C0.852496859,34.6179303 0.831028849,34.530065 0.871981431,34.4626303 C0.893706759,34.4268562 0.930027843,34.4024094 0.971348648,34.3957486 Z" id="Path-97" fill="url(#linearGradient-3)"></path>
                    <path d="M40.5322673,17.4897374 L42.9873422,14.5281446 C44.7489346,12.4031099 47.0149656,10.753399 49.5783851,9.72974816 L49.5783851,9.72974816 C52.1030074,8.72159018 54.9006317,8.62768568 57.4871747,9.4642833 L59.792466,10.2099122 C61.9509993,10.9080734 63.800317,12.3337464 65.0247518,14.2435775 L66.3249878,16.2716408 C66.6948467,16.848534 67.3329714,17.197428 68.018246,17.197428 L68.018246,17.197428 C68.3647687,17.197428 68.645681,16.9165158 68.645681,16.569993 C68.645681,16.4576754 68.6155313,16.347417 68.5583793,16.2507273 L67.0200181,13.6481294 C65.6693667,11.3630987 63.5209852,9.65864104 60.9886639,8.86304452 L58.8499441,8.19110841 C55.3633254,7.0956938 51.6190842,7.13458262 48.1559699,8.30217928 L47.4180248,8.55097908 C44.4495873,9.55179436 41.9201518,11.5511834 40.2609312,14.2082946 L38.2644632,17.4054808 C38.0900046,17.6848627 38.1750616,18.0527731 38.4544434,18.2272318 C38.549184,18.2863921 38.6586341,18.3177584 38.7703288,18.3177584 L38.7703288,18.3177584 C39.4516103,18.3177584 40.0974733,18.0142357 40.5322673,17.4897374 Z" id="Path-100" fill="#FFFFFF" filter="url(#filter-4)"></path>
                    <path d="M43.6857486,39.3011577 L46.079434,36.8487997 C49.4967191,40.1186104 53.4943877,40.936063 58.0724398,39.3011577 C58.0724398,39.3011577 58.4236827,40.2502274 59.1261687,42.1483667 C53.9302039,44.3329977 49.200713,43.6536401 44.937696,40.1102938 C44.937696,40.1190922 44.5203802,39.8493801 43.6857486,39.3011577 Z" id="Path-99" fill="#FFFFFF" filter="url(#filter-5)"></path>
                    <polygon id="Path-101" fill="url(#linearGradient-6)" points="47.6776689 32.0426974 47.6776689 33.3425145 55.136528 31.123856 55.136528 29.6811234"></polygon>
                </g>
                <path d="M48.2786134,8.24748437 L44.7670687,5.68656886 C41.1468499,3.04639904 36.7818702,1.6238051 32.3011916,1.6238051 L31.1400707,1.6238051 C25.8621394,1.6238051 20.6769087,3.01101954 16.1040322,5.64642457 L14.7893361,6.40410016 C10.9903059,8.59352803 7.85340824,11.7687299 5.71024787,15.5940519 L5.71024787,15.5940519 C3.56319431,19.4263229 2.43570764,23.7455383 2.43570764,28.1382755 L2.43570764,29.3571682 C2.43570764,34.5337047 3.87708578,39.6079947 6.59835723,44.01154 L8.04957541,46.3598927 C10.6948806,50.6405099 14.6114069,53.9877672 19.2518607,55.9339203 L25.0898442,58.3823037 C25.5661845,58.5820753 26.1142815,58.3578722 26.3140532,57.8815319 C26.3620916,57.766988 26.3868328,57.6440228 26.3868328,57.5198133 L26.3868328,57.5198133 C26.3868328,56.6541424 25.9096604,55.8589606 25.1457855,55.4516755 L18.9313618,52.1382505 C14.5131291,49.7825239 10.999467,46.0298764 8.93914442,41.466402 L8.43383189,40.3471691 C6.67238815,36.445691 5.76140026,32.2140223 5.76140026,27.933343 L5.76140026,27.933343 C5.76140026,23.7101992 7.0857557,19.5933802 9.54805843,16.1623442 L11.1666081,13.9070154 C13.1316989,11.1688072 15.675398,8.89668646 18.6171775,7.25190691 L18.6171775,7.25190691 C21.5461323,5.61429782 24.8458374,4.7544812 28.2015102,4.7544812 L31.6795756,4.7544812 C36.517075,4.7544812 41.1817828,6.5530861 44.7670687,9.80071998 L48.4489193,13.1358244 C48.9115564,13.5548917 49.6263191,13.5195713 50.0453864,13.0569342 C50.2336782,12.849066 50.337958,12.5786149 50.337958,12.2981457 L50.337958,12.2981457 C50.337958,10.6964894 49.5726911,9.19123529 48.2786134,8.24748437 Z" id="Path-181" fill="#70C117" filter="url(#filter-7)"></path>
            </g>
        </g>
    </g>
</svg>